<svg width="1200" height="630" viewBox="0 0 1200 630" fill="none" xmlns="http://www.w3.org/2000/svg">
  <style>
    .bg  { fill: var(--brand-500); }
    .txt { fill: var(--brand-50); font-family: 'Outfit Variable', Outfit, system-ui, -apple-system, sans-serif; font-weight: 800; }
    .ln  { stroke: var(--brand-300); stroke-width: 1; stroke-opacity: 0.35; }
    .pil { fill: var(--brand-400); fill-opacity: 0.25; stroke: var(--brand-200); stroke-opacity: 0.4; stroke-width: 1; }
    .ptx { fill: var(--brand-100); font-family: 'Outfit Variable', Outfit, system-ui, -apple-system, sans-serif; }
    .cor { stroke: var(--brand-300); stroke-width: 1.5; fill: none; stroke-opacity: 0.45; }
  </style>
  <rect width="1200" height="630" class="bg"/>

  <!-- Back-to-top button illustration, centred at (600, 215) -->

  <!-- Outer button face -->
  <circle cx="600" cy="215" r="75" fill="var(--brand-400)" fill-opacity="0.18" stroke="var(--brand-200)" stroke-width="1" stroke-opacity="0.35"/>

  <!-- Track circle -->
  <circle cx="600" cy="215" r="64" fill="none" stroke="var(--brand-300)" stroke-width="5" stroke-opacity="0.45"/>

  <!-- Progress arc (~65 % filled); circumference = 2π×64 ≈ 402.12; dashoffset = 402.12×0.35 ≈ 140.74 -->
  <circle cx="600" cy="215" r="64" fill="none"
    stroke="var(--brand-100)" stroke-width="7" stroke-linecap="round"
    stroke-dasharray="402.12" stroke-dashoffset="140.74"
    transform="rotate(-90 600 215)"/>

  <!-- Inner face -->
  <circle cx="600" cy="215" r="49" fill="var(--brand-400)" fill-opacity="0.28" stroke="var(--brand-200)" stroke-width="1.5" stroke-opacity="0.45"/>

  <!-- Up-arrow (Lucide ChevronUp, 24×24 → scale 1.333 → 32×32, centred at 600,215) -->
  <g transform="translate(588, 204) scale(1)">
    <path d="m18 15-6-6-6 6" stroke="var(--brand-100)" stroke-width="1.8" stroke-linecap="round" stroke-linejoin="round" fill="none"/>
  </g>

  <text x="600" y="410" font-size="80" text-anchor="middle" letter-spacing="-2" class="txt">progress ring</text>
  <line x1="380" y1="436" x2="820" y2="436" class="ln"/>
  <rect x="450" y="464" width="300" height="38" rx="19" class="pil"/>
  <text x="600" y="488" font-size="13" text-anchor="middle" letter-spacing="1.5" class="ptx">hansmartens.dev</text>
  <path d="M 36 60 L 36 36 L 60 36" class="cor"/>
  <path d="M 1140 36 L 1164 36 L 1164 60" class="cor"/>
  <path d="M 36 570 L 36 594 L 60 594" class="cor"/>
  <path d="M 1140 594 L 1164 594 L 1164 570" class="cor"/>
</svg>
